<?xml version="1.0" encoding="utf-8"?>
<!-- Generator: Adobe Illustrator 19.0.0, SVG Export Plug-In . SVG Version: 6.00 Build 0)  -->
<svg version="1.1" id="Capa_1" xmlns="http://www.w3.org/2000/svg" xmlns:xlink="http://www.w3.org/1999/xlink" x="0px" y="0px"
	 viewBox="0 0 1202 222.1" style="enable-background:new 0 0 1202 222.1;" xml:space="preserve">
<style type="text/css">
	.st0{fill:#002D5E;}
</style>
<g id="XMLID_30_">
	<g id="XMLID_217_">
		<polygon id="XMLID_231_" class="st0" points="160.5,25.8 184.2,25.7 184.1,3.3 144.1,3.5 95.3,93.4 71.8,93.5 71.4,3.8 0,4.1 
			0.1,26.5 27.3,26.4 28,222.1 72.3,222 71.9,117.9 88.3,117.8 147.2,221.7 199.9,221.5 126,89 		"/>
		<path id="XMLID_228_" class="st0" d="M287.3,33.8c-66.4,0.3-92,57.9-91.9,95c0.1,37.3,26.2,92.9,92.6,92.7
			c66.4-0.3,90.1-52.4,89.9-93.7C377.8,90.6,353.7,33.5,287.3,33.8 M288.7,198.9c-37.4,0.1-43.6-30.1-45-68.6
			c-1.4-38.8,6.3-73.9,43.8-74.1c37.5-0.1,43.5,32.8,43.6,71.3C331.2,166.4,326.1,198.7,288.7,198.9"/>
		<path id="XMLID_227_" class="st0" d="M506.1,32.7c-25.4,0.1-45.5,11.6-58.2,29.8L447.9,33l-74.9,0.3l0.1,22.4l30.6-0.1l0.7,165.1
			l44.4-0.2l-0.4-104.6c-0.1-32.3,15.9-60.5,45.5-60.6c20.9-0.1,24.5,15.3,24.5,35.1l0.5,129.9l44.4-0.2l-0.5-131.8
			C562.5,50.3,542.9,32.6,506.1,32.7"/>
		<path id="XMLID_225_" class="st0" d="M1001.4,0l-44.2,15.7l0.1,15.3l-24.6,0.1l0.1,22.6l24.6-0.1l0.5,119.7
			c0.2,43.1,31.9,50.5,68.7,42.1c4.3-1,10.1-3.5,10.1-3.5l0-19c-12.8,5.1-34.9,7.2-34.6-20.4l-0.5-119l39.5-0.2l-0.1-22.6l-39.5,0.2
			L1001.4,0z"/>
		<path id="XMLID_222_" class="st0" d="M727,162.9c-9.6,25.2-28.7,34.2-53.2,34.3c-27.1,0.1-39.3-26.8-39.4-58.8l-0.2-12.8l0-9.8
			l114.9-0.5l-0.2-3.7c-3.4-48.3-34.5-79.4-80.1-79.2c-46.1,0.2-85.7,44.1-85.5,94.2c0.2,49.4,41.5,93.3,88,93.1
			c34.4-0.1,62.7-23.1,72.3-56.9L727,162.9z M665.8,54.6c21.4-0.1,30.8,15.7,31.9,36.6l-63.6,0.3C634.3,71.1,642.2,54.6,665.8,54.6"
			/>
		<path id="XMLID_221_" class="st0" d="M909.7,162.1c-9.6,25.2-28.7,34.2-53.1,34.3c-27.1,0.1-47.1-32.6-46.2-75.7
			c1-49.4,21.8-66.4,52.3-67c8.9-0.2,18.2-1.4,37.6,7.2l0.1,29.4l22.5-0.1l-0.1-36.7c-13.3-13.2-32-22.3-65.3-22.2
			c-53,0.2-91.6,44.5-91.4,94.6c0.2,49.4,41.5,93.3,88,93.1c34.4-0.1,62.7-23.1,72.3-56.9L909.7,162.1z"/>
		<path id="XMLID_218_" class="st0" d="M1201.4,89.2c-0.1-31.1-13.8-58.9-70.9-58.7c-20.3,0.1-43,3.8-59.6,22.4
			c-5.2,5.8-12.5,19.9-12.4,36.8l22.4-0.1c0.1-2.8,0.3-5.7,0.9-8c7.7-28.5,35-29.2,45.6-28.6c15,0.9,29.7,9.4,29.8,35l0,9.5
			c-30.7,2-114.5,12.9-114.3,69.1c0.1,31.8,16.1,51.6,54.6,51.5c17.9-0.1,48.1-8.3,60.1-22.7l0.1,22.6l44.4-0.2L1201.4,89.2z
			 M1157.3,122.2c0.2,48.7-16.6,73.2-46.1,73.3c-15,0.1-22.8-7.4-22.9-29.9c-0.2-48.4,69-51.9,69-51.9L1157.3,122.2z"/>
	</g>
</g>
</svg>
